<?xml version="1.0" encoding="UTF-8"?>
<svg id="Capa_1" data-name="Capa 1" xmlns="http://www.w3.org/2000/svg" xmlns:xlink="http://www.w3.org/1999/xlink" viewBox="0 0 600 511.8">
  <defs>
    <style>
      .cls-1 {
        fill: #fff;
      }

      .cls-2 {
        fill: url(#Degradado_sin_nombre_4-2);
      }

      .cls-3 {
        fill: url(#Degradado_sin_nombre_4);
      }

      .cls-4 {
        fill: #036ae5;
      }

      .cls-5 {
        fill: url(#Degradado_sin_nombre_4-3);
      }

      .cls-6 {
        fill: #00153f;
      }
    </style>
    <linearGradient id="Degradado_sin_nombre_4" data-name="Degradado sin nombre 4" x1="579.7" y1="465.55" x2="383.52" y2="253.02" gradientUnits="userSpaceOnUse">
      <stop offset="0" stop-color="#4ec7f2"/>
      <stop offset="1" stop-color="#143ce2"/>
    </linearGradient>
    <linearGradient id="Degradado_sin_nombre_4-2" data-name="Degradado sin nombre 4" x1="408.62" y1="360.01" x2="175.75" y2="107.73" xlink:href="#Degradado_sin_nombre_4"/>
    <linearGradient id="Degradado_sin_nombre_4-3" data-name="Degradado sin nombre 4" x1="231.9" y1="19.37" x2="367.24" y2="191.19" xlink:href="#Degradado_sin_nombre_4"/>
  </defs>
  <g>
    <g>
      <polygon class="cls-6" points="48.71 314.06 0 438.52 31.65 438.52 64.51 354.56 97.25 438.52 129.08 438.52 80.36 314.06 48.71 314.06"/>
      <path class="cls-6" d="M235.48,329.71c-5.28-5.21-11.88-9.13-19.82-11.73-7.94-2.61-17.19-3.91-27.74-3.91h-51.74v124.46h51.74c10.55,0,19.79-1.3,27.74-3.91,7.94-2.61,14.55-6.52,19.82-11.73,5.27-5.21,9.25-11.7,11.91-19.47,2.67-7.76,4-16.8,4-27.11s-1.33-19.35-4-27.11c-2.67-7.76-6.64-14.25-11.91-19.47ZM218.86,391.76c-1.42,4.51-3.5,8.24-6.22,11.2-2.73,2.96-6.11,5.19-10.13,6.67-4.03,1.48-8.71,2.22-14.05,2.22h-22.58v-71.12h22.58c5.33,0,10.01.74,14.05,2.22,4.03,1.48,7.41,3.71,10.13,6.67,2.73,2.96,4.8,6.67,6.22,11.11,1.42,4.44,2.13,9.57,2.13,15.38s-.71,11.14-2.13,15.65Z"/>
      <polygon class="cls-6" points="382.25 438.52 333.53 314.06 301.89 314.06 253.17 438.52 284.82 438.52 317.68 354.56 350.42 438.52 382.25 438.52"/>
    </g>
    <g>
      <polygon class="cls-4" points="219.63 468.8 229.77 468.8 229.77 499.07 234.66 499.07 234.66 468.8 244.85 468.8 244.85 464.79 219.63 464.79 219.63 468.8"/>
      <path class="cls-4" d="M253.84,476.22c-.87.77-1.59,1.71-2.18,2.82l-.39-4.65h-4.41v24.68h4.9v-12.29c0-1.53.2-2.8.61-3.8.41-1,.95-1.79,1.64-2.38.69-.59,1.48-1.01,2.4-1.27.91-.26,1.88-.39,2.89-.39h1.76v-5.14c-1.5,0-2.86.21-4.09.64-1.22.42-2.27,1.02-3.13,1.79Z"/>
      <path class="cls-4" d="M281.82,475.02c-1.57-.82-3.51-1.22-5.83-1.22-1.76,0-3.43.33-5,.98-1.57.65-2.85,1.6-3.84,2.84-1,1.24-1.59,2.74-1.79,4.51h4.9c.26-1.44.91-2.51,1.96-3.21,1.04-.7,2.3-1.05,3.77-1.05,1.27,0,2.33.24,3.16.73.83.49,1.46,1.21,1.89,2.15.42.95.64,2.14.64,3.58h-6.37c-2.22,0-4.11.31-5.68.93-1.57.62-2.78,1.51-3.62,2.67-.85,1.16-1.27,2.54-1.27,4.14,0,1.37.33,2.64.98,3.79.65,1.16,1.65,2.08,2.99,2.77,1.34.69,3.02,1.03,5.04,1.03,1.08,0,2.04-.12,2.89-.37.85-.25,1.61-.58,2.28-1,.67-.42,1.26-.93,1.76-1.52.51-.59.92-1.21,1.25-1.86l.39,4.16h4.26v-15.28c0-2.06-.4-3.83-1.2-5.31-.8-1.48-1.98-2.64-3.55-3.45ZM281.63,487.9c-.03,1.01-.21,1.98-.54,2.89-.33.91-.79,1.75-1.4,2.5-.6.75-1.33,1.34-2.18,1.76-.85.42-1.8.64-2.84.64-.98,0-1.84-.16-2.57-.49-.73-.33-1.29-.78-1.67-1.37-.38-.59-.56-1.27-.56-2.06s.2-1.48.59-2.08,1.02-1.07,1.89-1.4c.86-.33,2.02-.49,3.45-.49h5.83v.1Z"/>
      <path class="cls-4" d="M300.58,478.99c1.11-.65,2.32-.98,3.62-.98,1.6,0,2.98.39,4.14,1.18,1.16.78,1.9,1.88,2.23,3.28h5.09c-.55-2.64-1.84-4.75-3.84-6.32-2.01-1.57-4.53-2.35-7.57-2.35-2.35,0-4.47.55-6.34,1.64-1.88,1.09-3.34,2.61-4.38,4.55-1.04,1.94-1.57,4.22-1.57,6.83s.52,4.7,1.57,6.66,2.51,3.48,4.38,4.55c1.88,1.08,3.99,1.62,6.34,1.62,3,0,5.52-.8,7.54-2.4,2.02-1.6,3.31-3.69,3.87-6.27h-5.09c-.23.95-.64,1.76-1.22,2.42s-1.33,1.18-2.23,1.54c-.9.36-1.87.54-2.91.54-.98,0-1.92-.2-2.82-.59-.9-.39-1.67-.95-2.33-1.67-.65-.72-1.17-1.63-1.54-2.74-.38-1.11-.56-2.37-.56-3.77,0-1.93.33-3.53.98-4.82.65-1.29,1.53-2.26,2.64-2.91Z"/>
      <polygon class="cls-4" points="341.77 474.39 335.89 474.39 326.29 484.76 326.29 463.81 321.39 463.81 321.39 499.07 326.29 499.07 326.29 486.43 336.92 499.07 343.09 499.07 331.2 485.68 341.77 474.39"/>
      <path class="cls-4" d="M349.21,493.1c-.95,0-1.73.3-2.35.91s-.93,1.35-.93,2.23.31,1.58.93,2.18c.62.6,1.4.91,2.35.91s1.67-.3,2.28-.91.91-1.33.91-2.18-.3-1.62-.91-2.23c-.6-.6-1.36-.91-2.28-.91Z"/>
      <path class="cls-4" d="M388.95,466.16c-1.78-.91-4.02-1.37-6.73-1.37h-11.7v34.28h4.9v-13.71h6.81c2.78,0,5.04-.47,6.81-1.42,1.76-.95,3.06-2.2,3.89-3.75.83-1.55,1.25-3.26,1.25-5.12,0-1.96-.42-3.71-1.27-5.24-.85-1.53-2.16-2.76-3.94-3.67ZM387.51,479.58c-1.11,1.14-2.94,1.71-5.48,1.71h-6.61v-12.44h6.61c2.55,0,4.37.54,5.48,1.62s1.67,2.6,1.67,4.55-.56,3.41-1.67,4.55Z"/>
      <path class="cls-4" d="M414.2,475.02c-1.57-.82-3.51-1.22-5.83-1.22-1.76,0-3.43.33-5,.98-1.57.65-2.85,1.6-3.84,2.84-1,1.24-1.59,2.74-1.79,4.51h4.9c.26-1.44.91-2.51,1.96-3.21s2.3-1.05,3.77-1.05c1.27,0,2.33.24,3.16.73.83.49,1.46,1.21,1.89,2.15.42.95.64,2.14.64,3.58h-6.37c-2.22,0-4.11.31-5.68.93-1.57.62-2.78,1.51-3.62,2.67-.85,1.16-1.27,2.54-1.27,4.14,0,1.37.33,2.64.98,3.79.65,1.16,1.65,2.08,2.99,2.77,1.34.69,3.02,1.03,5.04,1.03,1.08,0,2.04-.12,2.89-.37.85-.25,1.61-.58,2.28-1,.67-.42,1.26-.93,1.76-1.52.51-.59.92-1.21,1.25-1.86l.39,4.16h4.26v-15.28c0-2.06-.4-3.83-1.2-5.31-.8-1.48-1.98-2.64-3.55-3.45ZM414,487.9c-.03,1.01-.21,1.98-.54,2.89s-.79,1.75-1.4,2.5c-.6.75-1.33,1.34-2.18,1.76-.85.42-1.8.64-2.84.64-.98,0-1.84-.16-2.57-.49-.73-.33-1.29-.78-1.67-1.37-.38-.59-.56-1.27-.56-2.06s.2-1.48.59-2.08,1.02-1.07,1.89-1.4c.86-.33,2.02-.49,3.45-.49h5.83v.1Z"/>
      <polygon class="cls-4" points="442.95 474.39 435.16 492.31 427.47 474.39 422.13 474.39 431.88 496.33 433.3 496.33 427.27 509.84 432.42 509.84 448.09 474.39 442.95 474.39"/>
      <path class="cls-4" d="M450.83,493.1c-.95,0-1.73.3-2.35.91s-.93,1.35-.93,2.23.31,1.58.93,2.18c.62.6,1.4.91,2.35.91s1.67-.3,2.28-.91.91-1.33.91-2.18-.3-1.62-.91-2.23c-.6-.6-1.36-.91-2.28-.91Z"/>
      <path class="cls-4" d="M490.35,483.77c1.76-.93,3.06-2.17,3.89-3.72.83-1.55,1.25-3.24,1.25-5.07,0-1.93-.42-3.65-1.25-5.17-.83-1.52-2.11-2.73-3.84-3.65s-3.95-1.37-6.66-1.37h-11.61v34.28h4.9v-13.91h6.37l6.75,13.91h5.68l-7.36-14.57c.67-.2,1.3-.44,1.87-.73ZM477.03,468.9h6.37c2.48,0,4.28.56,5.39,1.67,1.11,1.11,1.67,2.61,1.67,4.51s-.56,3.39-1.69,4.58c-1.13,1.19-2.9,1.79-5.31,1.79h-6.42v-12.54Z"/>
      <path class="cls-4" d="M517.58,475.42c-1.73-1.08-3.8-1.62-6.22-1.62s-4.55.55-6.39,1.64c-1.84,1.09-3.27,2.61-4.26,4.55-1,1.94-1.49,4.2-1.49,6.78s.51,4.83,1.54,6.76c1.03,1.93,2.45,3.43,4.26,4.51,1.81,1.08,3.89,1.62,6.24,1.62,1.96,0,3.67-.34,5.14-1.03,1.47-.69,2.71-1.62,3.72-2.82,1.01-1.19,1.73-2.54,2.15-4.04h-4.9c-.46,1.17-1.2,2.11-2.23,2.79s-2.33,1.03-3.89,1.03c-1.34,0-2.55-.33-3.65-.98-1.09-.65-1.97-1.6-2.62-2.84-.57-1.08-.87-2.39-.95-3.92h18.82c.07-.42.1-.83.1-1.22v-1.08c0-2.16-.47-4.11-1.4-5.88s-2.26-3.18-3.99-4.26ZM504.09,484.43c.13-1.16.43-2.17.9-3.01.65-1.16,1.53-2.04,2.64-2.64,1.11-.6,2.33-.91,3.67-.91,1.89,0,3.48.59,4.75,1.76,1.27,1.18,1.96,2.78,2.06,4.8h-14.03Z"/>
      <rect class="cls-4" x="528.45" y="463.81" width="4.9" height="35.26"/>
      <path class="cls-4" d="M556.32,475.02c-1.57-.82-3.51-1.22-5.83-1.22-1.76,0-3.43.33-5,.98-1.57.65-2.85,1.6-3.84,2.84-1,1.24-1.59,2.74-1.79,4.51h4.9c.26-1.44.91-2.51,1.96-3.21s2.3-1.05,3.77-1.05c1.27,0,2.33.24,3.16.73.83.49,1.46,1.21,1.89,2.15.42.95.64,2.14.64,3.58h-6.37c-2.22,0-4.11.31-5.68.93-1.57.62-2.78,1.51-3.62,2.67-.85,1.16-1.27,2.54-1.27,4.14,0,1.37.33,2.64.98,3.79.65,1.16,1.65,2.08,2.99,2.77,1.34.69,3.02,1.03,5.04,1.03,1.08,0,2.04-.12,2.89-.37.85-.25,1.61-.58,2.28-1,.67-.42,1.26-.93,1.76-1.52.51-.59.92-1.21,1.25-1.86l.39,4.16h4.26v-15.28c0-2.06-.4-3.83-1.2-5.31-.8-1.48-1.98-2.64-3.55-3.45ZM556.12,487.9c-.03,1.01-.21,1.98-.54,2.89s-.79,1.75-1.4,2.5c-.6.75-1.33,1.34-2.18,1.76-.85.42-1.8.64-2.84.64-.98,0-1.84-.16-2.57-.49-.73-.33-1.29-.78-1.67-1.37-.38-.59-.56-1.27-.56-2.06s.2-1.48.59-2.08,1.02-1.07,1.89-1.4c.86-.33,2.02-.49,3.45-.49h5.83v.1Z"/>
      <polygon class="cls-4" points="583.2 474.39 576.74 483.94 570.27 474.39 564.94 474.39 573.51 486.73 564.94 499.07 570.27 499.07 576.74 489.47 583.2 499.07 588.44 499.07 579.92 486.73 588.44 474.39 583.2 474.39"/>
      <path class="cls-4" d="M597.09,494c-.6-.6-1.36-.91-2.28-.91s-1.73.3-2.35.91-.93,1.35-.93,2.23.31,1.58.93,2.18c.62.6,1.4.91,2.35.91s1.67-.3,2.28-.91.91-1.33.91-2.18-.3-1.62-.91-2.23Z"/>
    </g>
    <path class="cls-3" d="M581.53,438.52h-176.53l-48.51-124.45h225.04c10.2,0,18.47,8.27,18.47,18.47v87.5c0,10.2-8.27,18.47-18.47,18.47Z"/>
    <g>
      <path class="cls-1" d="M464.31,347.01c-2.03-1.74-4.63-3.04-7.81-3.9-3.18-.87-7.06-1.3-11.62-1.3h-27.24v60.72h10.41v-19.52h16.83c4.62,0,8.53-.43,11.71-1.3,3.18-.87,5.77-2.17,7.76-3.9,2-1.74,3.46-3.89,4.38-6.46.92-2.57,1.39-5.57,1.39-8.98s-.46-6.39-1.39-8.93c-.93-2.54-2.4-4.68-4.42-6.42ZM458.63,367.26c-.43,1.42-1.2,2.57-2.3,3.47-1.1.9-2.57,1.58-4.42,2.04-1.85.46-4.19.69-7.03.69h-16.83v-22.12h16.83c2.83,0,5.17.23,7.03.69,1.85.46,3.33,1.14,4.42,2.04,1.1.9,1.86,2.04,2.3,3.43.43,1.39.65,3.01.65,4.86s-.22,3.48-.65,4.9Z"/>
      <path class="cls-1" d="M510.63,361.88c-1.79-1.42-4.03-2.44-6.72-3.08-2.69-.64-5.86-.95-9.5-.95-3.12,0-5.96.3-8.5.91-2.55.61-4.7,1.56-6.46,2.86-1.76,1.3-3.12,2.98-4.08,5.03-.95,2.05-1.43,4.55-1.43,7.5h9.11c0-1.85.36-3.3,1.08-4.34.72-1.04,1.63-1.82,2.73-2.34,1.1-.52,2.31-.85,3.64-1,1.33-.14,2.6-.22,3.82-.22s2.52.09,3.9.26c1.39.17,2.66.55,3.82,1.13,1.16.58,2.11,1.43,2.86,2.56.75,1.13,1.13,2.68,1.13,4.64v.2l-15.35,1.54c-3.07.35-5.78.84-8.15,1.47-2.37.64-4.37,1.5-5.99,2.6-1.62,1.1-2.85,2.43-3.69,3.99-.84,1.56-1.26,3.44-1.26,5.64,0,2.66.48,4.86,1.43,6.59.95,1.74,2.27,3.12,3.95,4.16,1.68,1.04,3.69,1.76,6.03,2.17,2.34.4,4.9.61,7.68.61,3.87,0,6.92-.45,9.15-1.34,2.23-.9,3.89-2.1,4.99-3.6.49-.67.89-1.4,1.21-2.16v5.81h9.98v-26.2c0-3.47-.45-6.39-1.34-8.76-.9-2.37-2.24-4.26-4.03-5.68ZM505.38,389.99c-.49.95-1.29,1.82-2.39,2.6-1.1.78-2.54,1.45-4.34,2-1.79.55-4.02.82-6.68.82-1.85,0-3.41-.13-4.68-.39-1.27-.26-2.3-.62-3.08-1.08-.78-.46-1.34-1.01-1.69-1.65-.35-.64-.52-1.36-.52-2.17,0-1.1.26-2.02.78-2.78.52-.75,1.24-1.37,2.17-1.87.92-.49,2-.88,3.21-1.17,1.21-.29,2.54-.52,3.99-.69l13.88-1.37v5.91c-.11.58-.32,1.19-.65,1.83Z"/>
      <path class="cls-1" d="M557.65,359.5v20.38h-.09v.69c0,3.47-1.07,6.09-3.21,7.85-2.14,1.76-5.29,2.65-9.46,2.65-2.31,0-4.21-.26-5.68-.78s-2.65-1.24-3.51-2.17c-.87-.92-1.46-2.07-1.78-3.43-.32-1.36-.48-2.85-.48-4.47v-21.08h-9.98v22.29c0,3.41.38,6.32,1.13,8.72.75,2.4,1.91,4.35,3.47,5.86,1.56,1.5,3.53,2.6,5.9,3.3,2.37.69,5.12,1.04,8.24,1.04,3.53,0,6.49-.48,8.89-1.43,2.4-.95,4.34-2.3,5.81-4.03.26-.31.5-.65.74-.98v7.05c0,2.14-.3,3.92-.91,5.33-.61,1.42-1.49,2.57-2.65,3.47-1.16.9-2.53,1.52-4.12,1.87-1.59.35-3.37.52-5.33.52-1.85,0-3.54-.12-5.07-.35-1.53-.23-2.85-.65-3.95-1.26-1.1-.61-1.95-1.4-2.56-2.38-.61-.98-.91-2.17-.91-3.56h-9.11c0,2.83.43,5.26,1.3,7.29.87,2.02,2.2,3.69,3.99,4.99,1.79,1.3,4.05,2.25,6.77,2.86,2.72.61,5.96.91,9.71.91s6.97-.33,9.8-1c2.83-.67,5.21-1.81,7.11-3.43s3.37-3.77,4.38-6.46c1.01-2.69,1.52-6.06,1.52-10.11v-40.16h-9.98Z"/>
    </g>
  </g>
  <g>
    <path class="cls-2" d="M488.09,233.36l-68.38-86.71c-3.3-4.19-8.39-6.46-13.72-6.45-.03,0-.05,0-.08,0-39.46,0-71.58,32.03-71.73,71.46-.07,18.71-15.2,34.3-33.91,34.45-19,.14-34.44-15.21-34.44-34.17,0-39.55-32.18-71.73-71.73-71.73-.03,0-.05,0-.08,0-5.34-.01-10.42,2.26-13.72,6.45l-68.38,86.71c-12.3,17.35.11,41.35,21.38,41.35h333.43c21.27,0,33.67-24,21.38-41.35Z"/>
    <path class="cls-5" d="M300.1,0c1.13,0,2.03.91,2.05,2.04.39,26.73,11.32,52.37,30.35,71.39,19,19,44.51,29.91,71.37,30.39,1.13.02,2.03.92,2.03,2.05v.08c0,1.13-.91,2.03-2.03,2.05-27.51.47-53.62,11.94-72.72,31.75s-28.6,43.82-29.06,70.02c-.02,1.13-.92,2.03-2.05,2.03h-.08c-1.13,0-2.03-.91-2.05-2.03-.45-25.1-10.03-49.08-26.88-67.68-19.26-21.25-46.45-33.61-74.91-34.26-1.12-.03-2.02-.92-2.02-2.04v-.22c0-1.14.92-2.05,2.06-2.05,23.06-.06,45.51-8.34,63.47-22.97,23.74-19.34,37.76-48.12,38.41-78.51C298.08.9,298.98,0,300.1,0h0Z"/>
  </g>
</svg>