<?xml version="1.0" encoding="UTF-8"?>
<svg id="Capa_2" data-name="Capa 2" xmlns="http://www.w3.org/2000/svg" xmlns:xlink="http://www.w3.org/1999/xlink" viewBox="0 0 523.1 404.04">
  <defs>
    <style>
      .cls-1 {
        fill: #f2f2f2;
      }

      .cls-2 {
        fill: url(#Degradado_sin_nombre_3-2);
      }

      .cls-3 {
        fill: #036ae5;
      }

      .cls-4 {
        fill: url(#Degradado_sin_nombre_3);
      }
    </style>
    <linearGradient id="Degradado_sin_nombre_3" data-name="Degradado sin nombre 3" x1="220.28" y1="187.79" x2="90.5" y2="376.68" gradientUnits="userSpaceOnUse">
      <stop offset="0" stop-color="#4ec7f2"/>
      <stop offset="1" stop-color="#143ce2"/>
    </linearGradient>
    <linearGradient id="Degradado_sin_nombre_3-2" data-name="Degradado sin nombre 3" x1="87.23" y1="-1254.64" x2="170.93" y2="-1360.91" gradientTransform="translate(-141.8873 -1186.054) rotate(-10) scale(1 -1)" xlink:href="#Degradado_sin_nombre_3"/>
  </defs>
  <g id="Capa_1-2" data-name="Capa 1">
    <g>
      <g>
        <path class="cls-4" d="M40.4,229.75L0,340.65h24.87l8.35-24.24h41.28l8.35,24.24h25.03l-40.4-110.89h-27.09ZM39.56,298.03l14.3-41.51,14.3,41.51h-28.61ZM162.7,270.15c-2.54-3.59-5.84-6.36-9.9-8.32-4.07-1.95-8.9-2.93-14.5-2.93-7.29,0-13.84,1.8-19.64,5.39-5.81,3.59-10.38,8.58-13.7,14.97-3.33,6.39-4.99,13.6-4.99,21.62s1.64,15.18,4.91,21.47c3.27,6.28,7.76,11.22,13.47,14.81,5.7,3.59,12.09,5.39,19.17,5.39,4.33,0,8.1-.55,11.33-1.66,3.22-1.11,5.97-2.61,8.24-4.52,2.27-1.9,4.2-3.96,5.78-6.18l2.54,10.46h21.07v-114.06h-23.76v43.57ZM161.11,311.58c-1.69,3.12-4.02,5.6-6.97,7.45-2.96,1.85-6.39,2.77-10.3,2.77s-7.37-.92-10.38-2.77c-3.01-1.85-5.33-4.36-6.97-7.53-1.64-3.17-2.46-6.81-2.46-10.93s.82-7.58,2.46-10.69c1.64-3.11,3.96-5.6,6.97-7.45,3.01-1.85,6.47-2.77,10.38-2.77s7.21.9,10.22,2.69c3.01,1.8,5.36,4.28,7.05,7.45,1.69,3.17,2.53,6.76,2.53,10.77,0,4.23-.85,7.9-2.53,11.01ZM261.63,273.4c-3.12-4.8-7.47-8.42-13.07-10.85-5.6-2.43-12.2-3.64-19.8-3.64-6.97,0-13.18,1.22-18.61,3.64-5.44,2.43-9.74,5.76-12.91,9.98-3.17,4.23-5.02,9.19-5.54,14.89h22.81c.63-3.17,2.22-5.52,4.75-7.05,2.54-1.53,5.65-2.3,9.35-2.3,3.49,0,6.23.58,8.24,1.74,2,1.16,3.46,2.93,4.36,5.31.9,2.38,1.35,5.36,1.35,8.95h-19.17c-7.92,0-14.39,1.06-19.41,3.17-5.02,2.11-8.71,5.04-11.09,8.79-2.38,3.75-3.56,7.95-3.56,12.59s1.03,8.45,3.09,12.04c2.06,3.59,5.28,6.47,9.66,8.63,4.38,2.16,9.85,3.25,16.4,3.25,3.17,0,6.02-.32,8.55-.95,2.54-.63,4.86-1.56,6.97-2.77,2.11-1.21,3.96-2.64,5.54-4.28,1.58-1.64,2.96-3.46,4.12-5.47l2.85,11.56h19.8v-49.43c0-7.07-1.56-13.02-4.67-17.82ZM239.45,314.59c-.9,1.96-2.06,3.67-3.49,5.15-1.43,1.48-3.09,2.64-4.99,3.48-1.9.85-4.07,1.27-6.5,1.27-1.9,0-3.62-.32-5.15-.95-1.53-.63-2.75-1.53-3.64-2.69-.9-1.16-1.35-2.64-1.35-4.44,0-1.58.4-3.03,1.19-4.36.79-1.32,2.08-2.32,3.88-3.01,1.79-.69,4.01-1.03,6.65-1.03h15.37c-.42,2.43-1.08,4.62-1.98,6.57Z"/>
        <path class="cls-1" d="M270.58,340.65v-110.89h42.93c9.08,0,16.63,1.56,22.65,4.67,6.02,3.12,10.51,7.29,13.46,12.52,2.96,5.23,4.44,11.27,4.44,18.14,0,6.02-1.43,11.7-4.28,17.03-2.85,5.33-7.24,9.66-13.15,12.99-5.92,3.33-13.62,4.99-23.13,4.99h-19.17v40.56h-23.76ZM294.34,281.08h17.74c6.34,0,10.88-1.48,13.62-4.44,2.75-2.96,4.12-6.86,4.12-11.72s-1.37-8.84-4.12-11.64c-2.75-2.8-7.29-4.2-13.62-4.2h-17.74v32Z"/>
        <path class="cls-1" d="M384.96,342.55c-7.18,0-13.6-1.8-19.25-5.39-5.65-3.59-10.14-8.55-13.47-14.89-3.33-6.34-4.99-13.52-4.99-21.55s1.66-15.21,4.99-21.54c3.33-6.34,7.89-11.3,13.7-14.89,5.81-3.59,12.2-5.39,19.17-5.39,5.81,0,10.75,1.01,14.81,3.01,4.06,2.01,7.42,4.81,10.06,8.4l1.74-9.5h22.02v79.84h-22.02l-1.58-10.46c-2.43,3.38-5.62,6.28-9.58,8.71-3.96,2.43-9.16,3.64-15.6,3.64ZM391.14,321.79c3.91,0,7.34-.92,10.3-2.77,2.96-1.85,5.28-4.33,6.97-7.45,1.69-3.11,2.53-6.79,2.53-11.01s-.85-7.6-2.53-10.77c-1.69-3.17-4.04-5.65-7.05-7.45-3.01-1.79-6.42-2.69-10.22-2.69s-7.37.93-10.38,2.77c-3.01,1.85-5.33,4.33-6.97,7.45-1.64,3.12-2.46,6.68-2.46,10.69s.82,7.76,2.46,10.93c1.64,3.17,3.96,5.68,6.97,7.53,3.01,1.85,6.47,2.77,10.38,2.77Z"/>
        <path class="cls-1" d="M449.28,375.5l19.33-43.72h-4.75l-32.32-70.97h25.82l22.02,48.48,18.38-48.48h25.35l-48.63,114.7h-25.19Z"/>
      </g>
      <g>
        <polygon class="cls-3" points="0 364.44 9.78 364.44 9.78 393.65 14.5 393.65 14.5 364.44 24.33 364.44 24.33 360.57 0 360.57 0 364.44"/>
        <path class="cls-3" d="M33.01,371.6c-.84.74-1.53,1.65-2.1,2.72l-.38-4.49h-4.25v23.81h4.73v-11.86c0-1.48.19-2.7.59-3.67s.92-1.73,1.58-2.3,1.43-.97,2.32-1.23c.88-.25,1.81-.38,2.79-.38h1.7v-4.96c-1.45,0-2.76.2-3.95.62-1.18.41-2.19.98-3.02,1.73h0Z"/>
        <path class="cls-3" d="M60,370.44c-1.51-.79-3.39-1.18-5.62-1.18-1.7,0-3.31.32-4.82.95-1.51.63-2.75,1.54-3.7,2.74-.96,1.2-1.53,2.64-1.73,4.35h4.73c.25-1.39.88-2.42,1.89-3.1,1-.68,2.22-1.01,3.64-1.01,1.23,0,2.25.23,3.05.7.8.47,1.41,1.17,1.82,2.07.41.92.62,2.06.62,3.45h-6.15c-2.14,0-3.97.3-5.48.9s-2.68,1.46-3.49,2.58c-.82,1.12-1.23,2.45-1.23,3.99,0,1.32.32,2.55.95,3.66.63,1.12,1.59,2.01,2.88,2.67s2.91.99,4.86.99c1.04,0,1.97-.12,2.79-.36s1.55-.56,2.2-.96,1.22-.9,1.7-1.47c.49-.57.89-1.17,1.21-1.79l.38,4.01h4.11v-14.74c0-1.99-.39-3.7-1.16-5.12-.77-1.43-1.91-2.55-3.42-3.33h0ZM59.82,382.87c-.03.97-.2,1.91-.52,2.79-.32.88-.76,1.69-1.35,2.41-.58.72-1.28,1.29-2.1,1.7s-1.74.62-2.74.62c-.95,0-1.78-.15-2.48-.47s-1.24-.75-1.61-1.32-.54-1.23-.54-1.99.19-1.43.57-2.01.98-1.03,1.82-1.35c.83-.32,1.95-.47,3.33-.47h5.62v.1h0Z"/>
        <path class="cls-3" d="M78.1,374.27c1.07-.63,2.24-.95,3.49-.95,1.54,0,2.88.38,3.99,1.14,1.12.75,1.83,1.81,2.15,3.16h4.91c-.53-2.55-1.78-4.58-3.7-6.1-1.94-1.51-4.37-2.27-7.3-2.27-2.27,0-4.31.53-6.12,1.58-1.81,1.05-3.22,2.52-4.23,4.39s-1.51,4.07-1.51,6.59.5,4.53,1.51,6.43,2.42,3.36,4.23,4.39c1.81,1.04,3.85,1.56,6.12,1.56,2.89,0,5.33-.77,7.27-2.32,1.95-1.54,3.19-3.56,3.73-6.05h-4.91c-.22.92-.62,1.7-1.18,2.33s-1.28,1.14-2.15,1.49c-.87.35-1.8.52-2.81.52-.95,0-1.85-.19-2.72-.57-.87-.38-1.61-.92-2.25-1.61-.63-.69-1.13-1.57-1.49-2.64-.37-1.07-.54-2.29-.54-3.64,0-1.86.32-3.41.95-4.65.63-1.24,1.48-2.18,2.55-2.81h0Z"/>
        <polygon class="cls-3" points="117.84 369.84 112.17 369.84 102.9 379.84 102.9 359.63 98.18 359.63 98.18 393.65 102.9 393.65 102.9 381.45 113.16 393.65 119.11 393.65 107.64 380.73 117.84 369.84"/>
        <path class="cls-3" d="M125.02,387.89c-.92,0-1.67.29-2.27.88s-.9,1.3-.9,2.15.3,1.52.9,2.1,1.35.88,2.27.88,1.61-.29,2.2-.88.88-1.28.88-2.1-.29-1.56-.88-2.15-1.31-.88-2.2-.88Z"/>
        <path class="cls-3" d="M163.36,361.9c-1.72-.88-3.88-1.32-6.49-1.32h-11.29v33.07h4.73v-13.23h6.57c2.68,0,4.86-.45,6.57-1.37,1.7-.92,2.95-2.12,3.75-3.62.8-1.5,1.21-3.15,1.21-4.94,0-1.89-.41-3.58-1.23-5.06-.82-1.48-2.08-2.66-3.8-3.54h-.02ZM161.97,374.84c-1.07,1.1-2.84,1.65-5.29,1.65h-6.38v-12h6.38c2.46,0,4.22.52,5.29,1.56s1.61,2.51,1.61,4.39-.54,3.29-1.61,4.39h0Z"/>
        <path class="cls-3" d="M187.72,370.44c-1.51-.79-3.39-1.18-5.62-1.18-1.7,0-3.31.32-4.82.95-1.51.63-2.75,1.54-3.7,2.74-.96,1.2-1.53,2.64-1.73,4.35h4.73c.25-1.39.88-2.42,1.89-3.1s2.22-1.01,3.64-1.01c1.23,0,2.25.23,3.05.7.8.47,1.41,1.17,1.82,2.07.41.92.62,2.06.62,3.45h-6.15c-2.14,0-3.97.3-5.48.9s-2.68,1.46-3.49,2.58c-.82,1.12-1.23,2.45-1.23,3.99,0,1.32.32,2.55.95,3.66.63,1.12,1.59,2.01,2.88,2.67s2.91.99,4.86.99c1.04,0,1.97-.12,2.79-.36s1.55-.56,2.2-.96,1.22-.9,1.7-1.47c.49-.57.89-1.17,1.21-1.79l.38,4.01h4.11v-14.74c0-1.99-.39-3.7-1.16-5.12-.77-1.43-1.91-2.55-3.42-3.33h0ZM187.52,382.87c-.03.97-.2,1.91-.52,2.79s-.76,1.69-1.35,2.41c-.58.72-1.28,1.29-2.1,1.7s-1.74.62-2.74.62c-.95,0-1.78-.15-2.48-.47s-1.24-.75-1.61-1.32-.54-1.23-.54-1.99.19-1.43.57-2.01.98-1.03,1.82-1.35c.83-.32,1.95-.47,3.33-.47h5.62v.1h0Z"/>
        <polygon class="cls-3" points="215.46 369.84 207.94 387.13 200.52 369.84 195.37 369.84 204.78 391 206.15 391 200.33 404.04 205.3 404.04 220.41 369.84 215.46 369.84"/>
        <path class="cls-3" d="M223.06,387.89c-.92,0-1.67.29-2.27.88s-.9,1.3-.9,2.15.3,1.52.9,2.1,1.35.88,2.27.88,1.61-.29,2.2-.88.88-1.28.88-2.1-.29-1.56-.88-2.15-1.31-.88-2.2-.88Z"/>
        <path class="cls-3" d="M261.19,378.89c1.7-.9,2.95-2.09,3.75-3.59.8-1.5,1.21-3.13,1.21-4.89,0-1.86-.41-3.52-1.21-4.99-.8-1.47-2.04-2.63-3.7-3.52-1.67-.89-3.81-1.32-6.43-1.32h-11.2v33.07h4.73v-13.42h6.15l6.51,13.42h5.48l-7.1-14.06c.65-.19,1.25-.42,1.8-.7h0ZM248.34,364.54h6.15c2.39,0,4.13.54,5.2,1.61s1.61,2.52,1.61,4.35-.54,3.27-1.63,4.42c-1.09,1.15-2.8,1.73-5.12,1.73h-6.19v-12.1h0Z"/>
        <path class="cls-3" d="M287.46,370.83c-1.67-1.04-3.67-1.56-6-1.56s-4.39.53-6.16,1.58c-1.78,1.05-3.15,2.52-4.11,4.39-.96,1.87-1.44,4.05-1.44,6.54s.49,4.66,1.49,6.52c.99,1.86,2.36,3.31,4.11,4.35,1.75,1.04,3.75,1.56,6.02,1.56,1.89,0,3.54-.33,4.96-.99,1.42-.67,2.61-1.56,3.59-2.72.97-1.15,1.67-2.45,2.07-3.9h-4.73c-.44,1.13-1.16,2.04-2.15,2.69s-2.25.99-3.75.99c-1.29,0-2.46-.32-3.52-.95-1.05-.63-1.9-1.54-2.53-2.74-.55-1.04-.84-2.31-.92-3.78h18.16c.07-.41.1-.8.1-1.18v-1.04c0-2.08-.45-3.97-1.35-5.67s-2.18-3.07-3.85-4.11h.02ZM274.44,379.52c.13-1.12.41-2.09.87-2.9.63-1.12,1.48-1.97,2.55-2.55,1.07-.58,2.25-.88,3.54-.88,1.82,0,3.36.57,4.58,1.7,1.23,1.14,1.89,2.68,1.99,4.63h-13.54,0Z"/>
        <rect class="cls-3" x="297.94" y="359.63" width="4.73" height="34.02"/>
        <path class="cls-3" d="M324.83,370.44c-1.51-.79-3.39-1.18-5.62-1.18-1.7,0-3.31.32-4.82.95-1.51.63-2.75,1.54-3.7,2.74-.96,1.2-1.53,2.64-1.73,4.35h4.73c.25-1.39.88-2.42,1.89-3.1s2.22-1.01,3.64-1.01c1.23,0,2.25.23,3.05.7.8.47,1.41,1.17,1.82,2.07.41.92.62,2.06.62,3.45h-6.15c-2.14,0-3.97.3-5.48.9s-2.68,1.46-3.49,2.58c-.82,1.12-1.23,2.45-1.23,3.99,0,1.32.32,2.55.95,3.66.63,1.12,1.59,2.01,2.88,2.67,1.29.67,2.91.99,4.86.99,1.04,0,1.97-.12,2.79-.36.82-.24,1.55-.56,2.2-.96.65-.41,1.22-.9,1.7-1.47.49-.57.89-1.17,1.21-1.79l.38,4.01h4.11v-14.74c0-1.99-.39-3.7-1.16-5.12-.77-1.43-1.91-2.55-3.42-3.33h0ZM324.64,382.87c-.03.97-.2,1.91-.52,2.79s-.76,1.69-1.35,2.41c-.58.72-1.28,1.29-2.1,1.7s-1.74.62-2.74.62c-.95,0-1.78-.15-2.48-.47s-1.24-.75-1.61-1.32-.54-1.23-.54-1.99.19-1.43.57-2.01.98-1.03,1.82-1.35c.83-.32,1.95-.47,3.33-.47h5.62v.1h0Z"/>
        <polygon class="cls-3" points="350.77 369.84 344.53 379.05 338.29 369.84 333.15 369.84 341.42 381.74 333.15 393.65 338.29 393.65 344.53 384.39 350.77 393.65 355.82 393.65 347.6 381.74 355.82 369.84 350.77 369.84"/>
        <path class="cls-3" d="M364.17,388.76c-.58-.58-1.31-.88-2.2-.88s-1.67.29-2.27.88-.9,1.3-.9,2.15.3,1.52.9,2.1,1.35.88,2.27.88,1.61-.29,2.2-.88.88-1.28.88-2.1-.29-1.56-.88-2.15Z"/>
      </g>
      <g>
        <path class="cls-2" d="M201.34,15.26c.69-.12,1.33.34,1.47,1.02,3.11,16.24,12.52,30.68,26.15,40.22,13.61,9.53,30.32,13.44,46.73,10.84.69-.11,1.34.34,1.46,1.03v.05c.13.69-.33,1.33-1.01,1.47-16.7,3.24-31.38,13.03-40.88,27.15-9.51,14.12-12.71,29.76-10.18,45.77.11.69-.34,1.34-1.03,1.46h-.05c-.69.13-1.33-.33-1.47-1.01-2.97-15.24-11.38-28.82-23.64-38.33-14.01-10.87-31.9-15.48-49.3-12.82-.69.1-1.33-.34-1.45-1.03l-.02-.13c-.12-.69.34-1.35,1.03-1.47,14.04-2.51,26.82-9.97,36.19-20.81,12.38-14.33,17.83-33.36,14.96-51.94-.1-.7.35-1.34,1.04-1.46h0Z"/>
        <path class="cls-1" d="M295.46,15.56l-2.74-15.56-77.59,13.68c.01.07.04.13.05.2,2.46,12.83,9.64,24.07,20.28,31.78,1.12.81,2.55,1.1,3.92.86l43.39-7.65,2.74,15.56,37.77-6.66,9.38,53.21-21.47,3.79-2.4-13.63-61.51,10.85c-.52.7-1.07,1.37-1.56,2.09-7.39,10.98-10.15,23.12-8.26,36.07l11.33,64.25,36-6.35-11.21-63.58,25.27-4.46,2.4,13.63,73.77-13.01-22.08-125.21-57.46,10.13Z"/>
      </g>
    </g>
  </g>
</svg>