<?xml version="1.0" encoding="UTF-8"?>
<svg id="Capa_1" xmlns="http://www.w3.org/2000/svg" version="1.1" xmlns:xlink="http://www.w3.org/1999/xlink" viewBox="0 0 600 511.8">
  <!-- Generator: Adobe Illustrator 30.4.0, SVG Export Plug-In . SVG Version: 2.1.4 Build 226)  -->
  <defs>
    <style>
      .st0 {
        fill: #036ae5;
      }

      .st1 {
        fill: url(#Degradado_sin_nombre_3);
      }

      .st2 {
        fill: #00153f;
      }

      .st3 {
        fill: url(#Degradado_sin_nombre_31);
      }
    </style>
    <linearGradient id="Degradado_sin_nombre_3" data-name="Degradado sin nombre 3" x1="252.7" y1="239.6" x2="103.8" y2="456.2" gradientUnits="userSpaceOnUse">
      <stop offset="0" stop-color="#4ec7f2"/>
      <stop offset="1" stop-color="#143ce2"/>
    </linearGradient>
    <linearGradient id="Degradado_sin_nombre_31" data-name="Degradado sin nombre 3" x1="258.4" y1="459.3" x2="354.4" y2="337.4" gradientTransform="translate(10.9 560.8) rotate(-10) scale(1 -1)" xlink:href="#Degradado_sin_nombre_3"/>
  </defs>
  <g>
    <path class="st1" d="M46.3,287.7L0,414.9h28.5l9.6-27.8h47.3l9.6,27.8h28.7l-46.3-127.2h-31.1ZM45.4,366l16.4-47.6,16.4,47.6h-32.8ZM186.6,334c-2.9-4.1-6.7-7.3-11.4-9.5-4.7-2.2-10.2-3.4-16.6-3.4s-15.9,2.1-22.5,6.2c-6.7,4.1-11.9,9.8-15.7,17.2-3.8,7.3-5.7,15.6-5.7,24.8s1.9,17.4,5.6,24.6c3.8,7.2,8.9,12.9,15.4,17,6.5,4.1,13.9,6.2,22,6.2s9.3-.6,13-1.9c3.7-1.3,6.8-3,9.4-5.2,2.6-2.2,4.8-4.5,6.6-7.1l2.9,12h24.2v-130.8h-27.3v50ZM184.8,381.6c-1.9,3.6-4.6,6.4-8,8.5-3.4,2.1-7.3,3.2-11.8,3.2s-8.4-1.1-11.9-3.2c-3.5-2.1-6.1-5-8-8.6-1.9-3.6-2.8-7.8-2.8-12.5s.9-8.7,2.8-12.3c1.9-3.6,4.5-6.4,8-8.5,3.5-2.1,7.4-3.2,11.9-3.2s8.3,1,11.7,3.1c3.5,2.1,6.1,4.9,8.1,8.5,1.9,3.6,2.9,7.8,2.9,12.4s-1,9.1-2.9,12.6ZM300.1,337.8c-3.6-5.5-8.6-9.7-15-12.4-6.4-2.8-14-4.2-22.7-4.2s-15.1,1.4-21.4,4.2c-6.2,2.8-11.2,6.6-14.8,11.4-3.6,4.8-5.8,10.5-6.4,17.1h26.2c.7-3.6,2.5-6.3,5.5-8.1,2.9-1.8,6.5-2.6,10.7-2.6s7.1.7,9.4,2c2.3,1.3,4,3.4,5,6.1,1,2.7,1.5,6.1,1.5,10.3h-22c-9.1,0-16.5,1.2-22.3,3.6-5.8,2.4-10,5.8-12.7,10.1-2.7,4.3-4.1,9.1-4.1,14.4s1.2,9.7,3.5,13.8c2.4,4.1,6.1,7.4,11.1,9.9,5,2.5,11.3,3.7,18.8,3.7s6.9-.4,9.8-1.1c2.9-.7,5.6-1.8,8-3.2,2.4-1.4,4.5-3,6.4-4.9,1.8-1.9,3.4-4,4.7-6.3l3.3,13.3h22.7v-56.7c0-8.1-1.8-14.9-5.4-20.4ZM274.7,385c-1,2.2-2.4,4.2-4,5.9-1.6,1.7-3.5,3-5.7,4-2.2,1-4.7,1.5-7.4,1.5s-4.2-.4-5.9-1.1c-1.8-.7-3.2-1.8-4.2-3.1-1-1.3-1.5-3-1.5-5.1s.5-3.5,1.4-5c.9-1.5,2.4-2.7,4.5-3.5,2.1-.8,4.6-1.2,7.6-1.2h17.6c-.5,2.8-1.2,5.3-2.3,7.5Z"/>
    <path class="st2" d="M310.4,414.9v-127.2h49.2c10.4,0,19.1,1.8,26,5.4,6.9,3.6,12.1,8.4,15.4,14.4,3.4,6,5.1,12.9,5.1,20.8s-1.6,13.4-4.9,19.5c-3.3,6.1-8.3,11.1-15.1,14.9-6.8,3.8-15.6,5.7-26.5,5.7h-22v46.5h-27.3ZM337.6,346.6h20.4c7.3,0,12.5-1.7,15.6-5.1,3.1-3.4,4.7-7.9,4.7-13.4s-1.6-10.1-4.7-13.4c-3.2-3.2-8.4-4.8-15.6-4.8h-20.4v36.7Z"/>
    <path class="st2" d="M441.6,417.1c-8.2,0-15.6-2.1-22.1-6.2-6.5-4.1-11.6-9.8-15.4-17.1-3.8-7.3-5.7-15.5-5.7-24.7s1.9-17.4,5.7-24.7c3.8-7.3,9.1-13,15.7-17.1,6.7-4.1,14-6.2,22-6.2s12.3,1.2,17,3.5c4.7,2.3,8.5,5.5,11.5,9.6l2-10.9h25.3v91.6h-25.3l-1.8-12c-2.8,3.9-6.5,7.2-11,10-4.5,2.8-10.5,4.2-17.9,4.2ZM448.6,393.3c4.5,0,8.4-1.1,11.8-3.2,3.4-2.1,6.1-5,8-8.5,1.9-3.6,2.9-7.8,2.9-12.6s-1-8.7-2.9-12.4c-1.9-3.6-4.6-6.5-8.1-8.5-3.5-2.1-7.4-3.1-11.7-3.1s-8.5,1.1-11.9,3.2c-3.5,2.1-6.1,5-8,8.5-1.9,3.6-2.8,7.7-2.8,12.3s.9,8.9,2.8,12.5c1.9,3.6,4.5,6.5,8,8.6,3.5,2.1,7.4,3.2,11.9,3.2Z"/>
    <path class="st2" d="M515.3,454.9l22.2-50.2h-5.5l-37.1-81.4h29.6l25.3,55.6,21.1-55.6h29.1l-55.8,131.6h-28.9Z"/>
  </g>
  <g>
    <polygon class="st0" points="0 442.2 11.2 442.2 11.2 475.7 16.6 475.7 16.6 442.2 27.9 442.2 27.9 437.8 0 437.8 0 442.2"/>
    <path class="st0" d="M37.9,450.4c-1,.9-1.8,1.9-2.4,3.1l-.4-5.1h-4.9v27.3h5.4v-13.6c0-1.7.2-3.1.7-4.2s1.1-2,1.8-2.6,1.6-1.1,2.7-1.4c1-.3,2.1-.4,3.2-.4h1.9v-5.7c-1.7,0-3.2.2-4.5.7-1.4.5-2.5,1.1-3.5,2h0Z"/>
    <path class="st0" d="M68.8,449.1c-1.7-.9-3.9-1.4-6.5-1.4s-3.8.4-5.5,1.1c-1.7.7-3.2,1.8-4.2,3.1-1.1,1.4-1.8,3-2,5h5.4c.3-1.6,1-2.8,2.2-3.6,1.2-.8,2.5-1.2,4.2-1.2s2.6.3,3.5.8c.9.5,1.6,1.3,2.1,2.4.5,1.1.7,2.4.7,4h-7c-2.5,0-4.5.3-6.3,1s-3.1,1.7-4,3c-.9,1.3-1.4,2.8-1.4,4.6s.4,2.9,1.1,4.2c.7,1.3,1.8,2.3,3.3,3.1s3.3,1.1,5.6,1.1,2.3-.1,3.2-.4,1.8-.6,2.5-1.1,1.4-1,1.9-1.7c.6-.7,1-1.3,1.4-2.1l.4,4.6h4.7v-16.9c0-2.3-.4-4.2-1.3-5.9-.9-1.6-2.2-2.9-3.9-3.8h0ZM68.6,463.3c0,1.1-.2,2.2-.6,3.2-.4,1-.9,1.9-1.5,2.8-.7.8-1.5,1.5-2.4,1.9s-2,.7-3.1.7-2-.2-2.8-.5-1.4-.9-1.8-1.5-.6-1.4-.6-2.3.2-1.6.7-2.3,1.1-1.2,2.1-1.5c1-.4,2.2-.5,3.8-.5h6.5q0,.1,0,.1Z"/>
    <path class="st0" d="M89.6,453.5c1.2-.7,2.6-1.1,4-1.1s3.3.4,4.6,1.3c1.3.9,2.1,2.1,2.5,3.6h5.6c-.6-2.9-2-5.3-4.2-7-2.2-1.7-5-2.6-8.4-2.6s-4.9.6-7,1.8c-2.1,1.2-3.7,2.9-4.8,5s-1.7,4.7-1.7,7.6.6,5.2,1.7,7.4,2.8,3.9,4.8,5c2.1,1.2,4.4,1.8,7,1.8s6.1-.9,8.3-2.7c2.2-1.8,3.7-4.1,4.3-6.9h-5.6c-.3,1.1-.7,1.9-1.4,2.7s-1.5,1.3-2.5,1.7c-1,.4-2.1.6-3.2.6s-2.1-.2-3.1-.7c-1-.4-1.8-1.1-2.6-1.8-.7-.8-1.3-1.8-1.7-3-.4-1.2-.6-2.6-.6-4.2s.4-3.9,1.1-5.3c.7-1.4,1.7-2.5,2.9-3.2h0Z"/>
    <polygon class="st0" points="135.2 448.4 128.7 448.4 118 459.9 118 436.7 112.6 436.7 112.6 475.7 118 475.7 118 461.7 129.8 475.7 136.6 475.7 123.5 460.9 135.2 448.4"/>
    <path class="st0" d="M143.4,469.1c-1.1,0-1.9.3-2.6,1s-1,1.5-1,2.5.3,1.7,1,2.4,1.5,1,2.6,1,1.8-.3,2.5-1,1-1.5,1-2.4-.3-1.8-1-2.5-1.5-1-2.5-1Z"/>
    <path class="st0" d="M187.4,439.3c-2-1-4.4-1.5-7.4-1.5h-12.9v37.9h5.4v-15.2h7.5c3.1,0,5.6-.5,7.5-1.6,1.9-1.1,3.4-2.4,4.3-4.1.9-1.7,1.4-3.6,1.4-5.7s-.5-4.1-1.4-5.8c-.9-1.7-2.4-3.1-4.4-4.1h0ZM185.8,454.1c-1.2,1.3-3.3,1.9-6.1,1.9h-7.3v-13.8h7.3c2.8,0,4.8.6,6.1,1.8s1.8,2.9,1.8,5-.6,3.8-1.8,5h0Z"/>
    <path class="st0" d="M215.3,449.1c-1.7-.9-3.9-1.4-6.5-1.4s-3.8.4-5.5,1.1c-1.7.7-3.2,1.8-4.2,3.1-1.1,1.4-1.8,3-2,5h5.4c.3-1.6,1-2.8,2.2-3.6s2.5-1.2,4.2-1.2,2.6.3,3.5.8c.9.5,1.6,1.3,2.1,2.4.5,1.1.7,2.4.7,4h-7c-2.5,0-4.5.3-6.3,1s-3.1,1.7-4,3c-.9,1.3-1.4,2.8-1.4,4.6s.4,2.9,1.1,4.2c.7,1.3,1.8,2.3,3.3,3.1s3.3,1.1,5.6,1.1,2.3-.1,3.2-.4,1.8-.6,2.5-1.1,1.4-1,1.9-1.7c.6-.7,1-1.3,1.4-2.1l.4,4.6h4.7v-16.9c0-2.3-.4-4.2-1.3-5.9-.9-1.6-2.2-2.9-3.9-3.8h0ZM215.1,463.3c0,1.1-.2,2.2-.6,3.2s-.9,1.9-1.5,2.8c-.7.8-1.5,1.5-2.4,1.9s-2,.7-3.1.7-2-.2-2.8-.5-1.4-.9-1.8-1.5-.6-1.4-.6-2.3.2-1.6.7-2.3,1.1-1.2,2.1-1.5c1-.4,2.2-.5,3.8-.5h6.5q0,.1,0,.1Z"/>
    <polygon class="st0" points="247.1 448.4 238.5 468.2 230 448.4 224.1 448.4 234.9 472.7 236.5 472.7 229.8 487.6 235.5 487.6 252.8 448.4 247.1 448.4"/>
    <path class="st0" d="M255.9,469.1c-1.1,0-1.9.3-2.6,1s-1,1.5-1,2.5.3,1.7,1,2.4,1.5,1,2.6,1,1.8-.3,2.5-1,1-1.5,1-2.4-.3-1.8-1-2.5-1.5-1-2.5-1Z"/>
    <path class="st0" d="M299.6,458.8c1.9-1,3.4-2.4,4.3-4.1.9-1.7,1.4-3.6,1.4-5.6s-.5-4-1.4-5.7c-.9-1.7-2.3-3-4.2-4-1.9-1-4.4-1.5-7.4-1.5h-12.8v37.9h5.4v-15.4h7l7.5,15.4h6.3l-8.1-16.1c.7-.2,1.4-.5,2.1-.8h0ZM284.8,442.3h7c2.7,0,4.7.6,6,1.8s1.8,2.9,1.8,5-.6,3.8-1.9,5.1c-1.3,1.3-3.2,2-5.9,2h-7.1v-13.9h0Z"/>
    <path class="st0" d="M329.7,449.5c-1.9-1.2-4.2-1.8-6.9-1.8s-5,.6-7.1,1.8c-2,1.2-3.6,2.9-4.7,5-1.1,2.1-1.6,4.6-1.6,7.5s.6,5.3,1.7,7.5c1.1,2.1,2.7,3.8,4.7,5,2,1.2,4.3,1.8,6.9,1.8s4.1-.4,5.7-1.1c1.6-.8,3-1.8,4.1-3.1,1.1-1.3,1.9-2.8,2.4-4.5h-5.4c-.5,1.3-1.3,2.3-2.5,3.1s-2.6,1.1-4.3,1.1-2.8-.4-4-1.1c-1.2-.7-2.2-1.8-2.9-3.1-.6-1.2-1-2.6-1.1-4.3h20.8c0-.5.1-.9.1-1.4v-1.2c0-2.4-.5-4.5-1.5-6.5s-2.5-3.5-4.4-4.7h0ZM314.8,459.5c.1-1.3.5-2.4,1-3.3.7-1.3,1.7-2.3,2.9-2.9,1.2-.7,2.6-1,4.1-1s3.9.7,5.3,1.9c1.4,1.3,2.2,3.1,2.3,5.3h-15.5,0Z"/>
    <rect class="st0" x="341.7" y="436.7" width="5.4" height="39"/>
    <path class="st0" d="M372.6,449.1c-1.7-.9-3.9-1.4-6.5-1.4s-3.8.4-5.5,1.1c-1.7.7-3.2,1.8-4.2,3.1-1.1,1.4-1.8,3-2,5h5.4c.3-1.6,1-2.8,2.2-3.6s2.5-1.2,4.2-1.2,2.6.3,3.5.8c.9.5,1.6,1.3,2.1,2.4.5,1.1.7,2.4.7,4h-7c-2.5,0-4.5.3-6.3,1s-3.1,1.7-4,3c-.9,1.3-1.4,2.8-1.4,4.6s.4,2.9,1.1,4.2c.7,1.3,1.8,2.3,3.3,3.1,1.5.8,3.3,1.1,5.6,1.1s2.3-.1,3.2-.4c.9-.3,1.8-.6,2.5-1.1.7-.5,1.4-1,1.9-1.7.6-.7,1-1.3,1.4-2.1l.4,4.6h4.7v-16.9c0-2.3-.4-4.2-1.3-5.9-.9-1.6-2.2-2.9-3.9-3.8h0ZM372.4,463.3c0,1.1-.2,2.2-.6,3.2s-.9,1.9-1.5,2.8c-.7.8-1.5,1.5-2.4,1.9s-2,.7-3.1.7-2-.2-2.8-.5-1.4-.9-1.8-1.5-.6-1.4-.6-2.3.2-1.6.7-2.3,1.1-1.2,2.1-1.5c1-.4,2.2-.5,3.8-.5h6.5q0,.1,0,.1Z"/>
    <polygon class="st0" points="402.3 448.4 395.2 459 388 448.4 382.1 448.4 391.6 462 382.1 475.7 388 475.7 395.2 465.1 402.3 475.7 408.1 475.7 398.7 462 408.1 448.4 402.3 448.4"/>
    <path class="st0" d="M417.7,470.1c-.7-.7-1.5-1-2.5-1s-1.9.3-2.6,1-1,1.5-1,2.5.3,1.7,1,2.4,1.5,1,2.6,1,1.8-.3,2.5-1,1-1.5,1-2.4-.3-1.8-1-2.5Z"/>
  </g>
  <g>
    <path class="st3" d="M230.9,41.7c.8-.1,1.5.4,1.7,1.2,3.6,18.6,14.4,35.2,30,46.1,15.6,10.9,34.8,15.4,53.6,12.4.8-.1,1.5.4,1.7,1.2h0c.1.8-.4,1.6-1.2,1.7-19.2,3.7-36,14.9-46.9,31.1-10.9,16.2-14.6,34.1-11.7,52.5.1.8-.4,1.5-1.2,1.7h0c-.8.1-1.5-.4-1.7-1.2-3.4-17.5-13.1-33.1-27.1-44-16.1-12.5-36.6-17.8-56.6-14.7-.8.1-1.5-.4-1.7-1.2v-.2c-.2-.8.4-1.5,1.2-1.7,16.1-2.9,30.8-11.4,41.5-23.9,14.2-16.4,20.5-38.3,17.2-59.6-.1-.8.4-1.5,1.2-1.7h0Z"/>
    <path class="st2" d="M338.9,42l-3.1-17.9-89,15.7c0,0,0,.1,0,.2,2.8,14.7,11.1,27.6,23.3,36.5,1.3.9,2.9,1.3,4.5,1l49.8-8.8,3.1,17.9,43.3-7.6,10.8,61-24.6,4.3-2.8-15.6-70.6,12.4c-.6.8-1.2,1.6-1.8,2.4-8.5,12.6-11.6,26.5-9.5,41.4l13,73.7,41.3-7.3-12.9-72.9,29-5.1,2.8,15.6,84.6-14.9-25.3-143.6-65.9,11.6Z"/>
  </g>
</svg>