<?xml version="1.0" encoding="UTF-8"?>
<svg id="Capa_1" xmlns="http://www.w3.org/2000/svg" version="1.1" xmlns:xlink="http://www.w3.org/1999/xlink" viewBox="0 0 600 600">
  <!-- Generator: Adobe Illustrator 30.4.0, SVG Export Plug-In . SVG Version: 2.1.4 Build 226)  -->
  <defs>
    <style>
      .st0 {
        fill: url(#Degradado_sin_nombre_3);
      }

      .st1 {
        fill: url(#Degradado_sin_nombre);
      }

      .st2 {
        fill: url(#Degradado_sin_nombre_31);
      }
    </style>
    <linearGradient id="Degradado_sin_nombre" data-name="Degradado sin nombre" x1="583" y1="704.1" x2="241.5" y2="218.9" gradientTransform="translate(0 602) scale(1 -1)" gradientUnits="userSpaceOnUse">
      <stop offset="0" stop-color="#346493"/>
      <stop offset=".1" stop-color="#274f82"/>
      <stop offset=".4" stop-color="#132e67"/>
      <stop offset=".6" stop-color="#061a57"/>
      <stop offset=".8" stop-color="#021351"/>
    </linearGradient>
    <linearGradient id="Degradado_sin_nombre_3" data-name="Degradado sin nombre 3" x1="146.9" y1="452.7" x2="298.9" y2="259.7" gradientTransform="translate(18.6 648.2) rotate(-10) scale(1 -1)" gradientUnits="userSpaceOnUse">
      <stop offset="0" stop-color="#4ec7f2"/>
      <stop offset="1" stop-color="#143ce2"/>
    </linearGradient>
    <linearGradient id="Degradado_sin_nombre_31" data-name="Degradado sin nombre 3" x1="198.5" y1="152.3" x2="460.1" y2="412.4" gradientTransform="matrix(1,0,0,1,0,0)" xlink:href="#Degradado_sin_nombre_3"/>
  </defs>
  <rect class="st1" width="600" height="600" rx="167.7" ry="167.7"/>
  <g>
    <path class="st0" d="M156.3,142.1c1.3-.2,2.4.6,2.7,1.9,5.6,29.5,22.7,55.7,47.5,73.1,24.7,17.3,55.1,24.4,84.9,19.7,1.3-.2,2.4.6,2.6,1.9h0c.2,1.3-.6,2.5-1.8,2.8-30.3,5.9-57,23.7-74.3,49.3-17.3,25.6-23.1,54.1-18.5,83.1.2,1.3-.6,2.4-1.9,2.6h0c-1.3.2-2.4-.6-2.7-1.8-5.4-27.7-20.7-52.3-42.9-69.6-25.5-19.8-58-28.1-89.6-23.3-1.2.2-2.4-.6-2.6-1.9v-.2c-.3-1.3.6-2.4,1.8-2.7,25.5-4.6,48.7-18.1,65.7-37.8,22.5-26,32.4-60.6,27.2-94.4-.2-1.3.6-2.4,1.9-2.7h0Z"/>
    <path class="st2" d="M342.3,142.6l-5-28.3-141,24.9c0,.1,0,.2,0,.4,4.5,23.3,17.5,43.7,36.8,57.7,2,1.5,4.6,2,7.1,1.6l78.8-13.9,5,28.3,68.6-12.1,17,96.7-39,6.9-4.4-24.8-111.8,19.7c-.9,1.3-1.9,2.5-2.8,3.8-13.4,19.9-18.4,42-15,65.5l20.6,116.7,65.4-11.5-20.4-115.5,45.9-8.1,4.4,24.8,134-23.6-40.1-227.5-104.4,18.4Z"/>
  </g>
</svg>