<?xml version="1.0" encoding="UTF-8"?>
<svg id="Capa_1" data-name="Capa 1" xmlns="http://www.w3.org/2000/svg" xmlns:xlink="http://www.w3.org/1999/xlink" viewBox="0 0 204.6 204.6">
  <defs>
    <style>
      .cls-1 {
        fill: url(#Degradado_sin_nombre_96);
      }

      .cls-2 {
        fill: url(#Degradado_sin_nombre_96-2);
      }

      .cls-3 {
        fill: url(#Degradado_sin_nombre_7);
      }
    </style>
    <linearGradient id="Degradado_sin_nombre_7" data-name="Degradado sin nombre 7" x1="198.81" y1="-2474.55" x2="82.35" y2="-2640.02" gradientTransform="translate(0 -2509.3721) scale(1 -1)" gradientUnits="userSpaceOnUse">
      <stop offset="0" stop-color="#346493"/>
      <stop offset=".13" stop-color="#274f82"/>
      <stop offset=".39" stop-color="#132e67"/>
      <stop offset=".61" stop-color="#061a57"/>
      <stop offset=".75" stop-color="#021351"/>
    </linearGradient>
    <linearGradient id="Degradado_sin_nombre_96" data-name="Degradado sin nombre 96" x1="69.54" y1="162.77" x2="135.03" y2="41.87" gradientUnits="userSpaceOnUse">
      <stop offset="0" stop-color="#00ffef"/>
      <stop offset="1" stop-color="#2e31ff"/>
    </linearGradient>
    <linearGradient id="Degradado_sin_nombre_96-2" data-name="Degradado sin nombre 96" x1="136.33" y1="77.77" x2="151.49" y2="49.8" xlink:href="#Degradado_sin_nombre_96"/>
  </defs>
  <rect class="cls-3" y="0" width="204.6" height="204.6" rx="57.17" ry="57.17"/>
  <g>
    <path class="cls-1" d="M166.17,76.77c-3.45,5.83-9.13,10.19-15.86,11.89,1.23,4.34,1.91,8.91,1.91,13.64,0,27.53-22.39,49.92-49.92,49.92s-49.92-22.39-49.92-49.92,22.39-49.92,49.92-49.92c6.06,0,11.87,1.09,17.24,3.07,2.2-6.53,6.93-11.89,13.04-14.9-9.14-4.5-19.42-7.03-30.28-7.03-37.93,0-68.79,30.86-68.79,68.79s30.86,68.79,68.79,68.79,68.79-30.86,68.79-68.79c0-9.02-1.75-17.63-4.91-25.53Z"/>
    <circle class="cls-2" cx="143.97" cy="63.67" r="17.92"/>
  </g>
</svg>