<?xml version="1.0" encoding="UTF-8"?>
<svg id="Capa_1" data-name="Capa 1" xmlns="http://www.w3.org/2000/svg" xmlns:xlink="http://www.w3.org/1999/xlink" viewBox="0 0 600 600">
  <defs>
    <style>
      .cls-1 {
        fill: url(#Degradado_sin_nombre_88);
      }

      .cls-2 {
        fill: url(#Degradado_sin_nombre_96);
      }

      .cls-3 {
        fill: url(#Degradado_sin_nombre_91);
      }
    </style>
    <linearGradient id="Degradado_sin_nombre_96" data-name="Degradado sin nombre 96" x1="583.02" y1="-102.13" x2="241.49" y2="383.14" gradientUnits="userSpaceOnUse">
      <stop offset="0" stop-color="#346493"/>
      <stop offset=".13" stop-color="#274f82"/>
      <stop offset=".39" stop-color="#132e67"/>
      <stop offset=".61" stop-color="#061a57"/>
      <stop offset=".75" stop-color="#021351"/>
    </linearGradient>
    <linearGradient id="Degradado_sin_nombre_88" data-name="Degradado sin nombre 88" x1="36.12" y1="112.43" x2="539.39" y2="630.29" gradientUnits="userSpaceOnUse">
      <stop offset="0" stop-color="#38e3f9"/>
      <stop offset="1" stop-color="#143ce2"/>
    </linearGradient>
    <linearGradient id="Degradado_sin_nombre_91" data-name="Degradado sin nombre 91" x1="140.25" y1="54" x2="663.33" y2="592.23" gradientUnits="userSpaceOnUse">
      <stop offset=".04" stop-color="#38e3f9"/>
      <stop offset=".85" stop-color="#143ce2"/>
    </linearGradient>
  </defs>
  <rect class="cls-2" y="0" width="600" height="600" rx="167.66" ry="167.66"/>
  <g>
    <path class="cls-1" d="M531.22,375.16l-84.06-106.59c-4.06-5.15-10.31-7.94-16.87-7.93-.03,0-.07,0-.1,0-48.51,0-88,39.38-88.18,87.84-.09,23-18.69,42.17-41.69,42.34-23.35.18-42.33-18.7-42.33-42.01,0-48.62-39.56-88.18-88.18-88.18-.03,0-.07,0-.1,0-6.56-.02-12.81,2.78-16.87,7.93l-84.06,106.59c-15.12,21.33.13,50.83,26.28,50.83h409.89c26.14,0,41.4-29.5,26.28-50.83Z"/>
    <path class="cls-3" d="M300.12,88.29c1.39,0,2.5,1.12,2.52,2.51.48,32.86,13.92,64.38,37.31,87.76,23.36,23.35,54.72,36.77,87.74,37.36,1.38.02,2.5,1.13,2.5,2.52v.1c0,1.38-1.12,2.49-2.5,2.52-33.82.57-65.91,14.68-89.39,39.04-22.35,23.19-35.15,53.86-35.72,86.07-.02,1.39-1.13,2.5-2.52,2.5h-.1c-1.38,0-2.49-1.12-2.52-2.5-.55-30.85-12.33-60.34-33.04-83.2-23.67-26.12-57.1-41.32-92.09-42.12-1.38-.03-2.48-1.14-2.48-2.51v-.27c0-1.4,1.14-2.51,2.54-2.52,28.35-.07,55.94-10.25,78.03-28.24,29.19-23.78,46.42-59.16,47.22-96.51.03-1.38,1.14-2.49,2.52-2.49h0Z"/>
  </g>
</svg>