<?xml version="1.0" encoding="UTF-8"?>
<svg xmlns="http://www.w3.org/2000/svg" version="1.1" xmlns:xlink="http://www.w3.org/1999/xlink" viewBox="0 0 600 600">
  <!-- Generator: Adobe Illustrator 30.4.0, SVG Export Plug-In . SVG Version: 2.1.4 Build 226)  -->
  <defs>
    <style>
      .st0 {
        fill: url(#Degradado_sin_nombre_25);
      }

      .st1 {
        fill: url(#Degradado_sin_nombre_251);
      }

      .st2 {
        isolation: isolate;
      }

      .st3 {
        fill: url(#Degradado_sin_nombre_3);
      }

      .st4 {
        mix-blend-mode: overlay;
      }

      .st5 {
        fill: #00153f;
      }

      .st6 {
        fill: url(#Degradado_sin_nombre_31);
      }
    </style>
    <linearGradient id="Degradado_sin_nombre_3" data-name="Degradado sin nombre 3" x1="153.1" y1="446.9" x2="299.4" y2="261.2" gradientTransform="translate(18.6 648.2) rotate(-10) scale(1 -1)" gradientUnits="userSpaceOnUse">
      <stop offset="0" stop-color="#4ec7f2"/>
      <stop offset="1" stop-color="#143ce2"/>
    </linearGradient>
    <linearGradient id="Degradado_sin_nombre_31" data-name="Degradado sin nombre 3" x1="201.4" y1="157.9" x2="453" y2="408.1" gradientTransform="matrix(1,0,0,1,0,0)" xlink:href="#Degradado_sin_nombre_3"/>
    <linearGradient id="Degradado_sin_nombre_25" data-name="Degradado sin nombre 25" x1="153.1" y1="446.9" x2="299.4" y2="261.2" gradientTransform="translate(18.6 648.2) rotate(-10) scale(1 -1)" gradientUnits="userSpaceOnUse">
      <stop offset="0" stop-color="#4ec7f2"/>
      <stop offset="1" stop-color="#143ce2"/>
    </linearGradient>
    <linearGradient id="Degradado_sin_nombre_251" data-name="Degradado sin nombre 25" x1="201.4" y1="157.9" x2="453" y2="408.1" gradientTransform="matrix(1,0,0,1,0,0)" xlink:href="#Degradado_sin_nombre_25"/>
  </defs>
  <g class="st2">
    <g id="Capa_1">
      <rect class="st5" width="600" height="600" rx="167.7" ry="167.7"/>
      <g>
        <g>
          <path class="st3" d="M160.7,148.1c1.2-.2,2.3.6,2.6,1.8,5.4,28.4,21.9,53.6,45.7,70.3,23.8,16.7,53,23.5,81.7,19,1.2-.2,2.3.6,2.5,1.8h0c.2,1.3-.6,2.4-1.8,2.6-29.2,5.7-54.8,22.8-71.4,47.4-16.6,24.7-22.2,52-17.8,80,.2,1.2-.6,2.3-1.8,2.5h0c-1.2.2-2.3-.6-2.6-1.8-5.2-26.6-19.9-50.4-41.3-67-24.5-19-55.8-27.1-86.2-22.4-1.2.2-2.3-.6-2.5-1.8v-.2c-.3-1.2.6-2.4,1.8-2.6,24.5-4.4,46.9-17.4,63.3-36.4,21.6-25,31.2-58.3,26.2-90.8-.2-1.2.6-2.3,1.8-2.6h0Z"/>
          <path class="st6" d="M339.7,148.6l-4.8-27.2-135.6,23.9c0,.1,0,.2,0,.3,4.3,22.4,16.9,42.1,35.4,55.5,2,1.4,4.5,1.9,6.8,1.5l75.8-13.4,4.8,27.2,66-11.6,16.4,93-37.5,6.6-4.2-23.8-107.5,19c-.9,1.2-1.9,2.4-2.7,3.7-12.9,19.2-17.7,40.4-14.4,63l19.8,112.3,62.9-11.1-19.6-111.1,44.2-7.8,4.2,23.8,128.9-22.7-38.6-218.8-100.4,17.7Z"/>
        </g>
        <g class="st4">
          <path class="st0" d="M160.7,148.1c1.2-.2,2.3.6,2.6,1.8,5.4,28.4,21.9,53.6,45.7,70.3,23.8,16.7,53,23.5,81.7,19,1.2-.2,2.3.6,2.5,1.8h0c.2,1.3-.6,2.4-1.8,2.6-29.2,5.7-54.8,22.8-71.4,47.4-16.6,24.7-22.2,52-17.8,80,.2,1.2-.6,2.3-1.8,2.5h0c-1.2.2-2.3-.6-2.6-1.8-5.2-26.6-19.9-50.4-41.3-67-24.5-19-55.8-27.1-86.2-22.4-1.2.2-2.3-.6-2.5-1.8v-.2c-.3-1.2.6-2.4,1.8-2.6,24.5-4.4,46.9-17.4,63.3-36.4,21.6-25,31.2-58.3,26.2-90.8-.2-1.2.6-2.3,1.8-2.6h0Z"/>
          <path class="st1" d="M339.7,148.6l-4.8-27.2-135.6,23.9c0,.1,0,.2,0,.3,4.3,22.4,16.9,42.1,35.4,55.5,2,1.4,4.5,1.9,6.8,1.5l75.8-13.4,4.8,27.2,66-11.6,16.4,93-37.5,6.6-4.2-23.8-107.5,19c-.9,1.2-1.9,2.4-2.7,3.7-12.9,19.2-17.7,40.4-14.4,63l19.8,112.3,62.9-11.1-19.6-111.1,44.2-7.8,4.2,23.8,128.9-22.7-38.6-218.8-100.4,17.7Z"/>
        </g>
      </g>
    </g>
  </g>
</svg>