<?xml version="1.0" encoding="UTF-8"?>
<svg id="Capa_1" data-name="Capa 1" xmlns="http://www.w3.org/2000/svg" xmlns:xlink="http://www.w3.org/1999/xlink" viewBox="0 0 522.2 136.89">
  <defs>
    <style>
      .cls-1 {
        fill: url(#Degradado_sin_nombre_96);
      }

      .cls-2 {
        fill: url(#Degradado_sin_nombre_35);
      }

      .cls-3 {
        fill: #eaeaea;
      }
    </style>
    <linearGradient id="Degradado_sin_nombre_35" data-name="Degradado sin nombre 35" x1="352.27" y1="-7.79" x2="438.73" y2="-167.4" gradientTransform="translate(0 159.33)" gradientUnits="userSpaceOnUse">
      <stop offset="0" stop-color="#4ec7f2"/>
      <stop offset=".75" stop-color="#143ce2"/>
    </linearGradient>
    <linearGradient id="Degradado_sin_nombre_96" data-name="Degradado sin nombre 96" x1="252.43" y1="48.5" x2="262.56" y2="29.8" gradientUnits="userSpaceOnUse">
      <stop offset="0" stop-color="#00ffef"/>
      <stop offset="1" stop-color="#2e31ff"/>
    </linearGradient>
  </defs>
  <g>
    <path class="cls-2" d="M289.36,129.74V61.1c0-24.5,17.5-39.11,39.72-39.11s38.96,15.68,38.96,39.11-15.83,39.42-38.05,39.42c-10.96,0-18.72-3.96-22.37-8.67v37.9h-18.26ZM328.62,38.73c-12.63,0-21,8.37-21,22.52s8.37,22.52,21,22.52,21.15-8.37,21.15-22.52-8.37-22.52-21.15-22.52Z"/>
    <path class="cls-2" d="M451.29,61.56v37.74h-18.26v-7.3c-3.65,4.72-11.42,8.67-22.52,8.67-22.07,0-37.9-15.83-37.9-39.42s15.83-39.11,39.26-39.11,39.42,15.83,39.42,39.42ZM412.02,38.88c-12.78,0-21.15,8.37-21.15,22.52s8.37,22.52,21.15,22.52,21-8.37,21-22.52-8.37-22.52-21-22.52Z"/>
    <path class="cls-2" d="M447.63,23.21h19.02l18.26,52.66,18.26-52.66h19.02l-26.94,76.1c-6.24,17.81-10.65,37.59-36.22,37.59v-16.74c10.2,0,18.42-12.63,14.76-22.83l-26.18-74.12Z"/>
  </g>
  <g>
    <path class="cls-3" d="M46.82,68.56V23.21h18.26v44.9c0,10.65,7.91,15.68,16.74,15.68s16.74-5.02,16.74-15.68V23.21h18.26v45.35c0,13.24-9.89,32.11-35,32.11s-35-18.87-35-32.11Z"/>
    <path class="cls-3" d="M193.69,53.95v45.35h-18.26v-44.9c0-10.81-7.91-15.68-16.74-15.68s-16.74,4.87-16.74,15.68v44.9h-18.26v-45.35c0-13.24,9.89-32.11,35-32.11s35,18.87,35,32.11Z"/>
    <path class="cls-3" d="M37.11,101.37h-4.51C14.62,101.37,0,86.75,0,68.77V0h18.6v68.77c0,7.72,6.28,14,14,14h4.51v18.6Z"/>
    <path class="cls-3" d="M274.57,41.5c-1.05,7.39-6.76,13.26-14.08,14.53.29,1.69.46,3.47.46,5.38,0,14.15-8.37,22.52-21,22.52s-21.15-8.37-21.15-22.52,8.37-22.52,21.15-22.52c.12,0,.24.01.36.02.07-6.94,4.24-12.9,10.22-15.56-3.35-.78-6.94-1.2-10.73-1.2-23.44,0-39.26,15.68-39.26,39.11s15.83,39.42,37.9,39.42c11.11,0,18.87-3.96,22.52-8.67v7.3h18.26v-37.74c0-7.58-1.64-14.35-4.64-20.06Z"/>
  </g>
  <circle class="cls-1" cx="257.53" cy="39.07" r="11.98"/>
</svg>