<?xml version="1.0" encoding="UTF-8"?>
<svg id="Capa_1" data-name="Capa 1" xmlns="http://www.w3.org/2000/svg" xmlns:xlink="http://www.w3.org/1999/xlink" viewBox="0 0 336.68 225.19">
  <defs>
    <style>
      .cls-1 {
        fill: url(#Degradado_sin_nombre_44);
      }

      .cls-2 {
        fill: url(#Degradado_sin_nombre_96);
      }

      .cls-3 {
        fill: url(#Degradado_sin_nombre_96-2);
      }

      .cls-4 {
        fill: #00153f;
      }
    </style>
    <linearGradient id="Degradado_sin_nombre_44" data-name="Degradado sin nombre 44" x1="-439.96" y1="-707.15" x2="-387.3" y2="-804.48" gradientTransform="translate(673.44 930.08)" gradientUnits="userSpaceOnUse">
      <stop offset="0" stop-color="#4ec7f2"/>
      <stop offset=".75" stop-color="#143ce2"/>
    </linearGradient>
    <linearGradient id="Degradado_sin_nombre_96" data-name="Degradado sin nombre 96" x1="139.29" y1="113.24" x2="196.65" y2="7.35" gradientUnits="userSpaceOnUse">
      <stop offset="0" stop-color="#00ffef"/>
      <stop offset="1" stop-color="#2e31ff"/>
    </linearGradient>
    <linearGradient id="Degradado_sin_nombre_96-2" data-name="Degradado sin nombre 96" x1="198.25" y1="38.46" x2="211.72" y2="13.59" xlink:href="#Degradado_sin_nombre_96"/>
  </defs>
  <g>
    <g>
      <path class="cls-4" d="M30.19,181.13v-29.24h11.78v28.95c0,6.87,5.1,10.11,10.79,10.11s10.79-3.24,10.79-10.11v-28.95h11.78v29.24c0,8.54-6.38,20.71-22.57,20.71s-22.57-12.17-22.57-20.71Z"/>
      <path class="cls-4" d="M124.88,171.71v29.24h-11.78v-28.95c0-6.97-5.1-10.11-10.79-10.11s-10.79,3.14-10.79,10.11v28.95h-11.78v-29.24c0-8.54,6.38-20.71,22.57-20.71s22.57,12.17,22.57,20.71Z"/>
      <path class="cls-4" d="M180.02,176.62v24.34h-11.78v-4.71c-2.36,3.04-7.36,5.59-14.52,5.59-14.23,0-24.43-10.21-24.43-25.42s10.21-25.22,25.32-25.22,25.42,10.21,25.42,25.42ZM154.71,162c-8.24,0-13.64,5.4-13.64,14.52s5.4,14.52,13.64,14.52,13.54-5.4,13.54-14.52-5.4-14.52-13.54-14.52Z"/>
    </g>
    <g>
      <path class="cls-1" d="M186.56,220.58v-44.25c0-15.8,11.28-25.21,25.61-25.21s25.12,10.11,25.12,25.21-10.2,25.41-24.53,25.41c-7.06,0-12.07-2.55-14.42-5.59v24.43h-11.77ZM211.87,161.91c-8.14,0-13.54,5.4-13.54,14.52s5.4,14.52,13.54,14.52,13.64-5.4,13.64-14.52-5.4-14.52-13.64-14.52Z"/>
      <path class="cls-1" d="M290.95,176.62v24.33h-11.77v-4.71c-2.35,3.04-7.36,5.59-14.52,5.59-14.23,0-24.43-10.2-24.43-25.41s10.2-25.22,25.31-25.22,25.41,10.2,25.41,25.41ZM265.64,162c-8.24,0-13.64,5.4-13.64,14.52s5.4,14.52,13.64,14.52,13.54-5.4,13.54-14.52-5.4-14.52-13.54-14.52Z"/>
      <path class="cls-1" d="M288.6,151.9h12.26l11.77,33.95,11.77-33.95h12.26l-17.37,49.06c-4.02,11.48-6.87,24.23-23.35,24.23v-10.79c6.57,0,11.87-8.14,9.52-14.72l-16.88-47.78Z"/>
    </g>
    <path class="cls-4" d="M23.92,202.29h-2.91c-11.59,0-21.02-9.43-21.02-21.02v-44.34h11.99v44.34c0,4.98,4.05,9.03,9.03,9.03h2.91v11.99Z"/>
  </g>
  <g>
    <path class="cls-2" d="M224.18,38.52c-2.94,4.47-7.41,7.84-12.65,9.38,1.12,3.93,1.73,8.08,1.73,12.36,0,24.96-20.3,45.26-45.26,45.26s-45.26-20.3-45.26-45.26,20.3-45.26,45.26-45.26c5.49,0,10.75.98,15.62,2.78,1.93-5.08,5.62-9.29,10.32-11.9C186.07,2.11,177.27,0,167.99,0,134.76,0,107.73,27.03,107.73,60.26s27.03,60.26,60.26,60.26,60.26-27.03,60.26-60.26c0-7.67-1.45-14.99-4.08-21.74Z"/>
    <circle class="cls-3" cx="205.04" cy="25.92" r="15.93"/>
  </g>
</svg>